<svg width="39" height="39" viewBox="0 0 39 39" fill="none" xmlns="http://www.w3.org/2000/svg">
<path opacity="0.4" d="M31.0055 25.5452C30.0467 19.8089 24.538 15.1451 18.7205 15.1451C12.3992 15.1451 6.8417 20.2639 6.30545 26.5689C6.0942 29.0064 6.8742 31.3139 8.48295 33.0527C10.0754 34.7914 12.3179 35.7502 14.7554 35.7502H22.3605C25.1067 35.7502 27.5117 34.6777 29.153 32.7439C30.7942 30.8102 31.4442 28.2427 31.0055 25.5452Z" fill="#FF8E3C"/>
<path d="M16.7043 12.7725C19.3339 12.7725 21.4656 10.6408 21.4656 8.01125C21.4656 5.38169 19.3339 3.25 16.7043 3.25C14.0748 3.25 11.9431 5.38169 11.9431 8.01125C11.9431 10.6408 14.0748 12.7725 16.7043 12.7725Z" fill="#292D32"/>
<path d="M27.5275 14.6736C29.7174 14.6736 31.4925 12.8984 31.4925 10.7086C31.4925 8.51879 29.7174 6.74359 27.5275 6.74359C25.3377 6.74359 23.5625 8.51879 23.5625 10.7086C23.5625 12.8984 25.3377 14.6736 27.5275 14.6736Z" fill="#292D32"/>
<path d="M33.3931 21.0112C35.1432 21.0112 36.5619 19.5926 36.5619 17.8425C36.5619 16.0925 35.1432 14.6738 33.3931 14.6738C31.6432 14.6738 30.2244 16.0925 30.2244 17.8425C30.2244 19.5926 31.6432 21.0112 33.3931 21.0112Z" fill="#292D32"/>
<path d="M6.4025 17.8427C8.5923 17.8427 10.3675 16.0675 10.3675 13.8777C10.3675 11.6878 8.5923 9.91266 6.4025 9.91266C4.2127 9.91266 2.4375 11.6878 2.4375 13.8777C2.4375 16.0675 4.2127 17.8427 6.4025 17.8427Z" fill="#292D32"/>
</svg>
